<?xml version="1.0" encoding="UTF-8" standalone="no"?>
<svg width="600" height="600" xmlns="http://www.w3.org/2000/svg">
 <desc>Created with Snap</desc>
 <defs>
  <linearGradient id="linearGradientSkjjlfcerjud" y2="0.5" x2="1" y1="0.5" x1="0">
   <stop stop-color="#4d4a4d" offset="0%"/>
   <stop stop-color="#4d4a4d" offset="100%"/>
  </linearGradient>
  <linearGradient id="linearGradientSkjjlfcerjuj" y2="0.5" x2="1" y1="0.5" x1="0">
   <stop stop-color="#238a91" offset="0%"/>
   <stop stop-color="#238a91" offset="100%"/>
  </linearGradient>
  <linearGradient id="linearGradientSkjjlfcerk9m" y2="0.5" x2="1" y1="0.5" x1="0">
   <stop stop-color="#1761a0" offset="0%"/>
   <stop stop-color="#1761a0" offset="100%"/>
  </linearGradient>
  <linearGradient id="linearGradientSkjjlfcerka1" y2="0.5" x2="1" y1="0.5" x1="0">
   <stop stop-color="#238a91" offset="0%"/>
   <stop stop-color="#238a91" offset="100%"/>
  </linearGradient>
  <linearGradient id="linearGradientSkjjlfcerkbt" y2="0.5" x2="1" y1="0.5" x1="0">
   <stop stop-opacity="0.76078" stop-color="#1761a0" offset="0%"/>
   <stop stop-opacity="0.76078" stop-color="#1761a0" offset="100%"/>
  </linearGradient>
  <linearGradient id="linearGradientSkjjlfcerkd5" y2="0.5" x2="1" y1="0.5" x1="0">
   <stop stop-color="#1761a0" offset="0%"/>
   <stop stop-color="#1761a0" offset="100%"/>
  </linearGradient>
  <linearGradient id="linearGradientSkjjlfcerkd8" y2="0.5" x2="1" y1="0.5" x1="0">
   <stop stop-color="#1761a0" offset="0%"/>
   <stop stop-color="#1761a0" offset="100%"/>
  </linearGradient>
  <linearGradient id="linearGradientSkjjlfcerkdb" y2="0.5" x2="1" y1="0.5" x1="0">
   <stop stop-color="#1761a0" offset="0%"/>
   <stop stop-color="#1761a0" offset="100%"/>
  </linearGradient>
  <linearGradient id="linearGradientSkjjlfcerkde" y2="0.5" x2="1" y1="0.5" x1="0">
   <stop stop-color="#1761a0" offset="0%"/>
   <stop stop-color="#1761a0" offset="100%"/>
  </linearGradient>
  <linearGradient id="linearGradientSkjjlfcerkdh" y2="0.5" x2="1" y1="0.5" x1="0">
   <stop stop-color="#1761a0" offset="0%"/>
   <stop stop-color="#1761a0" offset="100%"/>
  </linearGradient>
  <linearGradient id="linearGradientSkjjlfcerkdw" y2="0.5" x2="1" y1="0.5" x1="0">
   <stop stop-color="#1761a0" offset="0%"/>
   <stop stop-color="#1761a0" offset="100%"/>
  </linearGradient>
  <linearGradient id="linearGradientSkjjlfcerkdz" y2="0.5" x2="1" y1="0.5" x1="0">
   <stop stop-color="#1761a0" offset="0%"/>
   <stop stop-color="#1761a0" offset="100%"/>
  </linearGradient>
 </defs>
 <g>
  <title>background</title>
  <rect fill="none" id="canvas_background" height="602" width="602" y="-1" x="-1"/>
 </g>
 <g>
  <title>Layer 1</title>
  <g id="svg_53" transform="matrix(1,0,0,1,387,109) " class="selector-part">
   <rect id="svg_54" fill="rgba(255,255,255,0)" height="0" width="0" y="41" x="-288"/>
  </g>
  <g id="svg_55" class="svg-clip svg-visible" transform="matrix(2.9601,0,0,1.0753,315.5351,455.8602) ">
   <rect id="svg_56" class="svg-hitbox" fill="none" height="17" width="186" y="38.12889" x="-97.29401"/>
   <g id="svg_7">
    <svg y="38.12889" x="-97.29401" id="svg_57" class="thumb" viewBox="-5,79.525,186.742,17.218999999999994" height="17.219" width="186.742">
     <desc>Created with Snap</desc>

     <g id="svg_58">
      <rect id="svg_59" fill="url('#linearGradientSkjjlfcerkbt')" height="7.219" width="176.742" y="84.525"/>
     </g>
    </svg>
   </g>
  </g>
  <g id="svg_60" class="svg-text svg-visible" transform="matrix(0.7929,0,0,0.9238,593,326) ">
   <path id="svg_61" d="m-655.31346,166.5694c272.08984,-1 312.08984,-1 584.17968,0" fill="none"/>
   <path id="svg_62" fill="url('#linearGradientSkjjlfcerka1')" d="m-560.00346,136.96253l0,14.06l-9.37,0l0,-14.06q0,-3.42 -0.12,-5.89q-0.13,-2.46 -0.83,-4.22q-0.71,-1.76 -2.23,-2.83q-1.51,-1.08 -4.29,-1.66q-2.79,-0.59 -7.06,-0.81q-4.27,-0.22 -10.52,-0.22l0,0l-42.14,0l0,29.69l-9.37,0l0,-75l53.07,0q8.59,0 14.48,0.61q5.88,0.61 9.72,1.83q3.83,1.22 5.9,3.03q2.08,1.81 3.03,4.25q0.95,2.44 1.12,5.47q0.18,3.02 0.18,6.68l0,0q0,4.69 -0.66,8.23q-0.66,3.54 -2.23,6.03q-1.56,2.49 -4.15,3.98q-2.58,1.49 -6.49,2.08l0,0q3.91,0.58 6.25,2.05q2.34,1.46 3.61,3.81q1.27,2.34 1.69,5.56q0.41,3.23 0.41,7.33l0,0zm-76.56,-53.13l0,29.69l43.7,0q6.25,0 10.52,-0.22q4.28,-0.22 7.06,-0.81q2.78,-0.58 4.3,-1.66q1.51,-1.07 2.22,-2.83q0.71,-1.76 0.83,-4.22q0.12,-2.47 0.12,-5.89l0,0q0,-3.17 -0.12,-5.46q-0.12,-2.3 -0.83,-3.86q-0.71,-1.56 -2.22,-2.49q-1.52,-0.93 -4.3,-1.44q-2.78,-0.51 -7.06,-0.66q-4.27,-0.15 -10.52,-0.15l0,0l-43.7,0zm123.435,68.26l0,0q-9.37,0 -15.92,-1.29q-6.54,-1.29 -10.64,-4.47q-4.1,-3.17 -5.96,-8.49q-1.85,-5.33 -1.85,-13.38l0,0q0,-9.23 1.85,-15.26q1.86,-6.03 5.96,-9.6q4.1,-3.56 10.64,-4.98q6.55,-1.41 15.92,-1.41l0,0q6.69,0 11.6,0.97q4.91,0.98 8.4,2.84q3.49,1.85 5.66,4.49q2.17,2.63 3.42,5.54q1.24,2.91 1.71,6.81q0.46,3.91 0.46,8.25l0,0l-0.78,3.13l-55.47,0q0,6.44 1.27,10.57q1.27,4.13 4.2,6.03q2.93,1.9 7.72,2.42q4.78,0.51 11.81,0.51l0,0q6.45,0 10.67,-0.37q4.23,-0.36 6.72,-1.39q2.49,-1.02 3.49,-2.85q1,-1.84 1,-4.77l0,0l9.37,0q0,4.55 -1.58,7.74q-1.59,3.2 -5.25,5.18q-3.67,1.98 -9.65,2.88q-5.98,0.9 -14.77,0.9zm0,-51.07l0,0q-4.68,0 -8.37,0.2q-3.69,0.19 -6.45,0.85q-2.76,0.66 -4.71,1.9q-1.95,1.25 -3.15,2.93q-1.19,1.69 -1.76,4.74q-0.56,3.05 -0.56,7.35l0,0l46.88,0q0,-5.71 -1.22,-8.96q-1.22,-3.25 -3.86,-5.35q-2.64,-2.1 -6.79,-2.88q-4.15,-0.78 -10.01,-0.78zm109.3825,50l-9.38,0l0,-31.74q0,-5.08 -0.78,-8.57q-0.78,-3.49 -3.13,-5.64q-2.34,-2.15 -6.64,-3.1q-4.29,-0.95 -11.32,-0.95l0,0q-7.62,0 -12.48,1.1q-4.86,1.1 -7.64,3.07q-2.79,1.98 -3.84,4.77q-1.04,2.78 -1.04,6.2l0,0l0,34.86l-9.38,0l0,-75l9.38,0l0,27.64q0.97,-2.3 2.78,-3.96q1.8,-1.66 4.17,-2.83q2.37,-1.17 5.11,-1.88q2.73,-0.71 5.54,-1.1q2.81,-0.39 5.52,-0.54q2.71,-0.14 5,-0.14l0,0q6.25,0 10.77,0.75q4.51,0.76 7.66,2.25q3.15,1.49 5.06,3.69q1.9,2.19 2.95,5.1q1.05,2.9 1.39,6.49q0.34,3.59 0.34,7.79l0,0l-0.04,31.74zm68.55382,0l0,-7.71q-0.15,0.58 -2.2,2.92l0,0q-1.47,1.76 -3.91,3.11q-2.44,1.34 -6.52,2.1q-4.07,0.75 -10.71,0.75l0,0q-8.84,0 -15.09,-0.9q-6.25,-0.9 -10.21,-2.78q-3.95,-1.88 -5.78,-4.81q-1.83,-2.93 -1.83,-6.99l0,0q0,-4.24 1,-7.2q1,-2.95 2.93,-4.95q1.93,-2.01 4.66,-3.13q2.73,-1.12 6.23,-1.71q3.49,-0.58 7.64,-0.73q4.15,-0.15 8.83,-0.15l0,0q6.69,0 11.19,0.56q4.49,0.57 7.34,1.42q2.86,0.85 4.33,1.83q1.46,0.98 2.1,1.81l0,0q0,-5.47 -0.47,-9.33q-0.46,-3.86 -1.51,-6.44q-1.05,-2.59 -2.71,-4.13q-1.66,-1.54 -4.08,-2.32q-2.42,-0.78 -5.64,-1q-3.22,-0.22 -7.37,-0.22l0,0q-6.45,0 -10.69,0.32q-4.25,0.31 -6.74,1.24q-2.49,0.93 -3.52,2.57q-1.02,1.63 -1.02,4.27l0,0l-9.38,0q0,-4.44 1.59,-7.52q1.58,-3.08 5.27,-5.01q3.69,-1.92 9.69,-2.8q6.01,-0.88 14.8,-0.88l0,0q8.59,0 14.55,1.41q5.96,1.42 9.64,4.98q3.69,3.57 5.33,9.6q1.63,6.03 1.63,15.26l0,0l0,26.56l-9.37,0zm-21.78,-6.25l0,0q6.2,0 10.37,-0.59q4.18,-0.58 6.72,-1.75q2.54,-1.18 3.61,-2.93q1.08,-1.76 1.08,-4.11l0,0q0,-2.34 -1.25,-3.97q-1.24,-1.64 -4.15,-2.67q-2.9,-1.02 -7.69,-1.48q-4.79,-0.47 -11.82,-0.47l0,0q-7.03,0 -11.35,0.25q-4.32,0.24 -6.66,1.12q-2.35,0.88 -3.15,2.59q-0.81,1.71 -0.81,4.63l0,0q0,2.93 0.86,4.77q0.85,1.83 3.49,2.85q2.63,1.03 7.59,1.39q4.96,0.37 13.16,0.37zm102.98086,6.25l-56.2,0l0,-75l62.54,0q7.04,0 11.33,1.15q4.3,1.14 6.62,3.37q2.32,2.22 3.1,5.54q0.78,3.32 0.78,7.62l0,0q0,3.12 -0.54,5.51q-0.53,2.4 -1.41,4.15q-0.88,1.76 -2.01,2.96q-1.12,1.19 -2.29,1.98l0,0q-2.73,1.85 -6.25,2.09l0,0q4.39,0.25 7.81,2.15l0,0q1.47,0.83 2.86,2.08q1.39,1.24 2.49,3.07q1.1,1.84 1.78,4.3q0.69,2.47 0.69,5.69l0,0q0,3.91 -0.37,7.15q-0.37,3.25 -1.49,5.84q-1.12,2.59 -3.22,4.54q-2.1,1.95 -5.59,3.25q-3.5,1.29 -8.55,1.93q-5.05,0.63 -12.08,0.63l0,0zm-46.83,-7.81l43.7,0q5.47,0 9.47,-0.17q4.01,-0.17 6.79,-0.74q2.78,-0.56 4.49,-1.61q1.71,-1.05 2.66,-2.78q0.96,-1.73 1.3,-4.22q0.34,-2.49 0.34,-6.01l0,0q0,-2.73 -0.34,-4.76q-0.34,-2.03 -1.3,-3.42q-0.95,-1.39 -2.66,-2.24q-1.71,-0.86 -4.49,-1.35q-2.78,-0.49 -6.79,-0.66q-4,-0.17 -9.47,-0.17l0,0l-43.7,0l0,28.13zm0,-35.94l43.7,0q4.79,0 8.25,-0.2q3.47,-0.19 5.91,-0.73q2.44,-0.53 3.96,-1.49q1.51,-0.95 2.36,-2.46q0.86,-1.52 1.15,-3.64q0.3,-2.12 0.3,-5.05l0,0q0,-3.13 -0.69,-5.08q-0.68,-1.96 -2.44,-3.01q-1.76,-1.05 -4.76,-1.41q-3,-0.37 -7.69,-0.37l0,0l-50.05,0l0,23.44zm89.065,15.23l0,0q0,-8.64 1.85,-14.3q1.86,-5.67 5.96,-8.99q4.1,-3.32 10.64,-4.66q6.55,-1.34 15.92,-1.34l0,0q9.38,0 15.92,1.34q6.54,1.34 10.65,4.66q4.1,3.32 5.95,8.99q1.86,5.66 1.86,14.3l0,0q0,8.65 -1.86,14.36q-1.85,5.71 -5.95,9.08q-4.11,3.37 -10.65,4.76q-6.54,1.39 -15.92,1.39l0,0q-9.37,0 -15.92,-1.39q-6.54,-1.39 -10.64,-4.76q-4.1,-3.37 -5.96,-9.08q-1.85,-5.71 -1.85,-14.36zm9.37,0l0,0q0,4.69 0.34,8.16q0.35,3.47 1.3,5.96q0.95,2.49 2.66,4.05q1.71,1.56 4.49,2.49q2.78,0.93 6.76,1.27q3.98,0.34 9.45,0.34l0,0q4.69,0 8.38,-0.22q3.68,-0.22 6.44,-1q2.76,-0.78 4.71,-2.22q1.96,-1.44 3.15,-3.93q1.2,-2.49 1.76,-6.13q0.56,-3.64 0.56,-8.77l0,0q0,-5.02 -0.56,-8.56q-0.56,-3.55 -1.76,-5.94q-1.19,-2.39 -3.15,-3.78q-1.95,-1.39 -4.71,-2.1q-2.76,-0.71 -6.44,-0.9q-3.69,-0.2 -8.38,-0.2l0,0q-4.68,0 -8.37,0.2q-3.69,0.19 -6.45,0.9q-2.76,0.71 -4.71,2.1q-1.95,1.39 -3.15,3.78q-1.19,2.39 -1.76,5.94q-0.56,3.54 -0.56,8.56zm117.195,3.52l7.81,0q0,7.18 -1.17,11.99q-1.18,4.81 -3.94,7.69q-2.75,2.88 -7.25,4.1q-4.49,1.22 -11.08,1.22l0,0q-6.4,0 -10.74,-0.98q-4.35,-0.97 -7.03,-3.32q-2.69,-2.34 -3.86,-6.25q-1.17,-3.9 -1.17,-9.76l0,0l0,-28.23l-11.57,0l0,-7.71l11.57,0l0,-15.38l9.37,0l0,15.38l35.31,0l0,7.71l-35.31,0l0,28.23q0,4.68 0.71,7.22q0.71,2.54 2.27,3.71q1.56,1.18 4.13,1.37q2.56,0.2 6.27,0.2l0,0q2.93,0 5.25,-0.1q2.32,-0.1 4.05,-0.61q1.74,-0.51 2.96,-1.56q1.22,-1.05 1.97,-2.96q0.76,-1.9 1.1,-4.81q0.35,-2.9 0.35,-7.15l0,0z"/>
   <rect id="svg_63" height="0" width="0" y="44.3819" x="-363.22362"/>
  </g>
  <g id="svg_64" class="svg-clip svg-visible" transform="matrix(-0.7958,3.1919,3.2685,0.8149,443.502,114.4557) ">
   <rect id="svg_65" class="svg-hitbox" fill="none" height="100" width="64" y="-80.01278" x="33.27248"/>
   <g id="svg_8">
    <svg y="-80.01278" x="33.27248" id="svg_66" viewBox="17.621,0,64.759,100" height="100" width="64.759">
     <desc>Created with Snap</desc>

     <g id="svg_67">
      <path id="svg_68" fill="url('#linearGradientSkjjlfcerkdw')" d="m27.462,95l18.847,-11.439c2.72,2.123 6.131,3.401 9.841,3.401c8.845,0 16.041,-7.196 16.041,-16.04c0,-6.674 -4.1,-12.404 -9.911,-14.817l0,-15.4c8.65,-2.104 15.1,-9.9 15.1,-19.195c0,-6.675 -3.348,-12.846 -8.955,-16.509l-2.296,3.515l-2.296,3.515c3.225,2.106 5.149,5.649 5.149,9.478c0,6.272 -5.096,11.375 -11.359,11.375c-6.272,0 -11.375,-5.103 -11.375,-11.375c0,-3.829 1.925,-7.372 5.149,-9.478l-2.297,-3.516l-2.296,-3.515c-5.607,3.662 -8.955,9.834 -8.955,16.509c0,9.29 6.449,17.083 15.099,19.192l0,14.503c-7.316,1.488 -12.839,7.97 -12.839,15.718c0,1.746 0.29,3.423 0.808,4.998l-18.296,11.104l4.841,7.976zm28.688,-32.876c4.859,0 8.798,3.939 8.798,8.798c0,4.859 -3.939,8.798 -8.798,8.798c-4.859,0 -8.798,-3.939 -8.798,-8.798c0,-4.859 3.939,-8.798 8.798,-8.798z"/>
     </g>
    </svg>
   </g>
  </g>
  <g id="svg_69" class="svg-clip svg-visible" transform="matrix(-0.7958,3.1919,3.2685,0.8149,626.6713,262.8175) ">
   <rect id="svg_70" class="svg-hitbox" fill="none" height="15" width="15" y="-80.01278" x="33.27248"/>
   <g id="svg_9">
    <svg y="-80.01278" x="33.27248" id="svg_71" viewBox="48.466001674969654,63.24199999999999,15.367996650060682,15.36" height="15.36" width="15.368">
     <desc>Created with Snap</desc>

     <g id="svg_72">
      <circle id="svg_73" fill="url('#linearGradientSkjjlfcerkdz')" r="2.68" cy="70.922" cx="56.15"/>
     </g>
    </svg>
   </g>
  </g>
  <g id="svg_74" class="svg-text svg-visible" transform="matrix(0.2945,0,0,0.2603,595,428) ">
   <path id="svg_75" d="m-1797.97263,263.19415c800.04395,-1 840.04395,-1 1640.0879,0" fill="none"/>
   <path id="svg_76" fill="url('#linearGradientSkjjlfcerjud')" d="m-1797.04263,251.77326l15.38,-83.4l14.55,0l15.43,83.4l-12.79,0l-2.3,-14.94l-15.23,0l-2.2,14.94l-12.84,0zm16.5,-24.46l12.31,0l-5.86,-41.56l-0.54,0l-5.91,41.56zm33.4968,10.4l0,0q0,-2.2 0.42,-4.25q0.41,-2.05 0.8,-3.27l0,0l8.69,0q0,3.66 0.37,6.13q0.37,2.46 1.2,3.93q0.83,1.46 2.22,2.1q1.39,0.63 3.39,0.63l0,0q2.78,0 4.05,-1.56q1.27,-1.56 1.27,-3.61l0,0q0,-1.08 -0.29,-2.06q-0.29,-0.97 -0.83,-1.97q-0.54,-1 -1.32,-2.03q-0.78,-1.02 -1.76,-2.25l0,0l-9.03,-10.64q-1.76,-2.2 -3.39,-4.47q-1.64,-2.27 -2.88,-4.69q-1.25,-2.41 -2.01,-5.05q-0.75,-2.64 -0.75,-5.57l0,0q0,-3.9 1.34,-6.78q1.34,-2.88 3.61,-4.79q2.27,-1.9 5.25,-2.83q2.98,-0.93 6.3,-0.93l0,0q3.66,0 6.59,0.88q2.93,0.88 5.03,2.64q2.1,1.76 3.23,4.37q1.12,2.61 1.12,6.08l0,0q0,2.34 -0.42,4.54q-0.41,2.2 -0.8,3.76l0,0l-8.55,0q-0.05,-3.32 -0.29,-5.81q-0.24,-2.49 -0.9,-4.13q-0.66,-1.63 -1.81,-2.46q-1.15,-0.83 -3,-0.83l0,0q-1.61,0 -2.69,0.51q-1.07,0.51 -1.73,1.34q-0.66,0.83 -0.93,1.86q-0.27,1.02 -0.27,2.1l0,0q0,2.34 1.12,4.34q1.13,2 2.98,4.35l0,0l9.87,11.57q1.07,1.32 2.49,3.2q1.41,1.88 2.68,4.15q1.27,2.27 2.15,4.95q0.88,2.69 0.88,5.62l0,0q0,3.56 -1.12,6.47q-1.13,2.9 -3.32,4.96q-2.2,2.05 -5.4,3.17q-3.2,1.12 -7.3,1.12l0,0q-3.37,0 -6.35,-0.75q-2.98,-0.76 -5.17,-2.49q-2.2,-1.74 -3.47,-4.57q-1.27,-2.83 -1.27,-6.98zm40.47852,0l0,0q0,-2.2 0.42,-4.25q0.41,-2.05 0.8,-3.27l0,0l8.69,0q0,3.66 0.37,6.13q0.37,2.46 1.2,3.93q0.83,1.46 2.22,2.1q1.39,0.63 3.39,0.63l0,0q2.78,0 4.05,-1.56q1.27,-1.56 1.27,-3.61l0,0q0,-1.08 -0.29,-2.06q-0.29,-0.97 -0.83,-1.97q-0.54,-1 -1.32,-2.03q-0.78,-1.02 -1.76,-2.25l0,0l-9.03,-10.64q-1.76,-2.2 -3.39,-4.47q-1.64,-2.27 -2.88,-4.69q-1.25,-2.41 -2.01,-5.05q-0.75,-2.64 -0.75,-5.57l0,0q0,-3.9 1.34,-6.78q1.34,-2.88 3.61,-4.79q2.27,-1.9 5.25,-2.83q2.98,-0.93 6.3,-0.93l0,0q3.66,0 6.59,0.88q2.93,0.88 5.03,2.64q2.1,1.76 3.23,4.37q1.12,2.61 1.12,6.08l0,0q0,2.34 -0.42,4.54q-0.41,2.2 -0.8,3.76l0,0l-8.55,0q-0.05,-3.32 -0.29,-5.81q-0.24,-2.49 -0.9,-4.13q-0.66,-1.63 -1.81,-2.46q-1.15,-0.83 -3,-0.83l0,0q-1.61,0 -2.69,0.51q-1.07,0.51 -1.73,1.34q-0.66,0.83 -0.93,1.86q-0.27,1.02 -0.27,2.1l0,0q0,2.34 1.12,4.34q1.13,2 2.98,4.35l0,0l9.87,11.57q1.07,1.32 2.49,3.2q1.41,1.88 2.68,4.15q1.27,2.27 2.15,4.95q0.88,2.69 0.88,5.62l0,0q0,3.56 -1.12,6.47q-1.13,2.9 -3.32,4.96q-2.2,2.05 -5.4,3.17q-3.2,1.12 -7.3,1.12l0,0q-3.37,0 -6.35,-0.75q-2.98,-0.76 -5.17,-2.49q-2.2,-1.74 -3.47,-4.57q-1.27,-2.83 -1.27,-6.98zm49.70851,-62.8l0,0q-3.42,0 -5.4,-2.05q-1.97,-2.05 -1.97,-6l0,0q0,-2.2 0.51,-3.69q0.51,-1.49 1.46,-2.39q0.96,-0.9 2.32,-1.32q1.37,-0.41 3.13,-0.41l0,0q3.66,0 5.56,1.85q1.91,1.86 1.91,5.96l0,0q0,3.81 -1.93,5.93q-1.93,2.12 -5.59,2.12zm-6.4,76.86l0,-67.24l12.36,0l0,67.24l-12.36,0zm22.60946,-14.06l0,0q0,-2.2 0.42,-4.25q0.41,-2.05 0.8,-3.27l0,0l8.69,0q0,3.66 0.37,6.13q0.37,2.46 1.2,3.93q0.83,1.46 2.22,2.1q1.39,0.63 3.39,0.63l0,0q2.78,0 4.05,-1.56q1.27,-1.56 1.27,-3.61l0,0q0,-1.08 -0.29,-2.06q-0.29,-0.97 -0.83,-1.97q-0.54,-1 -1.32,-2.03q-0.78,-1.02 -1.76,-2.25l0,0l-9.03,-10.64q-1.76,-2.2 -3.39,-4.47q-1.64,-2.27 -2.88,-4.69q-1.25,-2.41 -2.01,-5.05q-0.75,-2.64 -0.75,-5.57l0,0q0,-3.9 1.34,-6.78q1.34,-2.88 3.61,-4.79q2.27,-1.9 5.25,-2.83q2.98,-0.93 6.3,-0.93l0,0q3.66,0 6.59,0.88q2.93,0.88 5.03,2.64q2.1,1.76 3.23,4.37q1.12,2.61 1.12,6.08l0,0q0,2.34 -0.42,4.54q-0.41,2.2 -0.8,3.76l0,0l-8.55,0q-0.05,-3.32 -0.29,-5.81q-0.24,-2.49 -0.9,-4.13q-0.66,-1.63 -1.81,-2.46q-1.15,-0.83 -3,-0.83l0,0q-1.61,0 -2.69,0.51q-1.07,0.51 -1.73,1.34q-0.66,0.83 -0.93,1.86q-0.27,1.02 -0.27,2.1l0,0q0,2.34 1.12,4.34q1.13,2 2.98,4.35l0,0l9.87,11.57q1.07,1.32 2.49,3.2q1.41,1.88 2.68,4.15q1.27,2.27 2.15,4.95q0.88,2.69 0.88,5.62l0,0q0,3.56 -1.12,6.47q-1.13,2.9 -3.32,4.96q-2.2,2.05 -5.4,3.17q-3.2,1.12 -7.3,1.12l0,0q-3.37,0 -6.35,-0.75q-2.98,-0.76 -5.17,-2.49q-2.2,-1.74 -3.47,-4.57q-1.27,-2.83 -1.27,-6.98zm44.52851,-2.69l0,-41.7l-5.22,0l0,-8.79l6.3,0l2.49,-17.43l8.79,0l0,17.43l10.74,0l0,8.79l-10.74,0l0,42.78q0,2.19 0.41,3.54q0.42,1.34 1.15,2.1q0.73,0.75 1.71,1q0.98,0.24 2.05,0.24l0,0q1.81,0 3.2,-0.44q1.39,-0.44 2.66,-1.22l0,0l0,6.84q-1.08,1.32 -2.32,2.15q-1.25,0.83 -2.56,1.34q-1.32,0.51 -2.69,0.71q-1.37,0.19 -2.69,0.19l0,0q-2.58,0 -4.98,-0.68q-2.39,-0.69 -4.24,-2.61q-1.86,-1.93 -2.96,-5.35q-1.1,-3.42 -1.1,-8.89l0,0zm38.13899,-60.11l0,0q-3.42,0 -5.4,-2.05q-1.97,-2.05 -1.97,-6l0,0q0,-2.2 0.51,-3.69q0.51,-1.49 1.46,-2.39q0.96,-0.9 2.32,-1.32q1.37,-0.41 3.13,-0.41l0,0q3.66,0 5.56,1.85q1.91,1.86 1.91,5.96l0,0q0,3.81 -1.93,5.93q-1.93,2.12 -5.59,2.12zm-6.4,76.86l0,-67.24l12.36,0l0,67.24l-12.36,0zm34.81945,0l-15.14,-67.24l12.31,0l6.49,35.75l1.61,14.3l0.39,0l1.86,-14.3l6.44,-35.75l11.92,0l-15.34,67.24l-10.54,0zm49.31578,0.73l0,0q-4.35,0 -7.69,-1.61q-3.35,-1.61 -5.64,-5.03q-2.3,-3.42 -3.47,-8.76q-1.17,-5.35 -1.17,-12.87l0,0l0,-12.69q0,-6.4 0.95,-10.97q0.95,-4.56 2.49,-7.66q1.54,-3.1 3.57,-4.91q2.02,-1.81 4.17,-2.76q2.15,-0.95 4.27,-1.22q2.13,-0.27 3.93,-0.27l0,0q3.32,0 6.4,1q3.08,1 5.42,3.42q2.34,2.42 3.74,6.47q1.39,4.05 1.39,10.11l0,0q0,2.05 -0.12,4.15q-0.13,2.1 -0.32,4.12q-0.2,2.03 -0.51,3.94q-0.32,1.9 -0.66,3.51l0,0l-22.32,0l0,6.84q0,4.39 0.34,7.39q0.35,3.01 1.15,4.84q0.81,1.83 2.2,2.64q1.39,0.8 3.49,0.8l0,0q1.12,0 2.2,-0.46q1.07,-0.47 1.88,-1.54q0.8,-1.08 1.29,-2.86q0.49,-1.78 0.49,-4.42l0,0l0,-2.1l10.3,0l0,2.59q0,9.57 -4.56,13.94q-4.57,4.37 -13.21,4.37zm-5.57,-40.33l12.4,0q0.05,-0.54 0.1,-1.44q0.05,-0.9 0.08,-1.88q0.02,-0.98 0.02,-1.93q0,-0.95 0,-1.63l0,0q0,-6.65 -1.56,-9.57q-1.57,-2.93 -4.64,-2.93l0,0q-1.61,0 -2.83,0.75q-1.22,0.76 -2.01,2.54q-0.78,1.78 -1.17,4.71q-0.39,2.93 -0.39,7.28l0,0l0,4.1zm56.54625,39.6l0,-83.4l30.91,0l0,9.96l-18.26,0l0,24.95l14.11,0l0,9.96l-14.11,0l0,28.57l18.75,0l0,9.96l-31.4,0zm34.61734,0l13.97,-34.13l-13.29,-33.11l12.65,0l7.18,22.03l0.1,0l7.61,-22.03l11.82,0l-12.74,31.94l14.3,35.3l-12.64,0l-8.3,-23.19l-0.4,0l-8.39,23.19l-11.87,0zm66.11297,0.73l0,0q-2.15,0 -4.37,-0.34q-2.22,-0.34 -4.3,-1.42q-2.07,-1.07 -3.9,-3.07q-1.83,-2 -3.2,-5.28q-1.37,-3.27 -2.15,-8.05q-0.78,-4.79 -0.78,-11.43l0,0l0,-10.54q0,-6.55 0.81,-11.21q0.8,-4.66 2.19,-7.84q1.39,-3.17 3.25,-5.05q1.86,-1.88 3.93,-2.88q2.08,-1 4.27,-1.32q2.2,-0.32 4.3,-0.32l0,0q2,0 4.15,0.3q2.15,0.29 4.2,1.24q2.05,0.95 3.88,2.83q1.83,1.88 3.22,5.06q1.4,3.17 2.2,7.88q0.81,4.71 0.81,11.31l0,0l0,10.54q0,6.55 -0.83,11.28q-0.83,4.74 -2.25,8.01q-1.42,3.27 -3.27,5.3q-1.86,2.02 -3.91,3.15q-2.05,1.12 -4.17,1.49q-2.13,0.36 -4.08,0.36zm0.1,-9.52l0,0q1.66,0 2.81,-0.85q1.14,-0.86 1.85,-2.81q0.71,-1.95 1.03,-5.15q0.31,-3.2 0.31,-7.94l0,0l0,-16.55q0,-4.74 -0.31,-7.96q-0.32,-3.22 -1.03,-5.2q-0.71,-1.98 -1.85,-2.86q-1.15,-0.87 -2.81,-0.87l0,0q-1.76,0 -2.96,0.87q-1.19,0.88 -1.97,2.86q-0.78,1.98 -1.13,5.2q-0.34,3.22 -0.34,7.96l0,0l0,16.55q0,4.74 0.34,7.94q0.35,3.2 1.13,5.15q0.78,1.95 1.97,2.81q1.2,0.85 2.96,0.85zm26.70672,-5.27l0,0q0,-2.2 0.42,-4.25q0.41,-2.05 0.8,-3.27l0,0l8.69,0q0,3.66 0.37,6.13q0.37,2.46 1.2,3.93q0.83,1.46 2.22,2.1q1.39,0.63 3.39,0.63l0,0q2.78,0 4.05,-1.56q1.27,-1.56 1.27,-3.61l0,0q0,-1.08 -0.29,-2.06q-0.29,-0.97 -0.83,-1.97q-0.54,-1 -1.32,-2.03q-0.78,-1.02 -1.76,-2.25l0,0l-9.03,-10.64q-1.76,-2.2 -3.39,-4.47q-1.64,-2.27 -2.88,-4.69q-1.25,-2.41 -2.01,-5.05q-0.75,-2.64 -0.75,-5.57l0,0q0,-3.9 1.34,-6.78q1.34,-2.88 3.61,-4.79q2.27,-1.9 5.25,-2.83q2.98,-0.93 6.3,-0.93l0,0q3.66,0 6.59,0.88q2.93,0.88 5.03,2.64q2.1,1.76 3.23,4.37q1.12,2.61 1.12,6.08l0,0q0,2.34 -0.42,4.54q-0.41,2.2 -0.8,3.76l0,0l-8.55,0q-0.05,-3.32 -0.29,-5.81q-0.24,-2.49 -0.9,-4.13q-0.66,-1.63 -1.81,-2.46q-1.15,-0.83 -3,-0.83l0,0q-1.61,0 -2.69,0.51q-1.07,0.51 -1.73,1.34q-0.66,0.83 -0.93,1.86q-0.27,1.02 -0.27,2.1l0,0q0,2.34 1.12,4.34q1.13,2 2.98,4.35l0,0l9.87,11.57q1.07,1.32 2.49,3.2q1.41,1.88 2.68,4.15q1.27,2.27 2.15,4.95q0.88,2.69 0.88,5.62l0,0q0,3.56 -1.12,6.47q-1.13,2.9 -3.32,4.96q-2.2,2.05 -5.4,3.17q-3.2,1.12 -7.3,1.12l0,0q-3.37,0 -6.35,-0.75q-2.98,-0.76 -5.17,-2.49q-2.2,-1.74 -3.47,-4.57q-1.27,-2.83 -1.27,-6.98zm43.30852,14.06l0,-88.82l12.36,0l0,51.12l0.39,0l13.47,-29.54l11.87,0l-14.94,30.77l16.35,36.47l-12.59,0l-14.16,-33.35l-0.39,0l0,33.35l-12.36,0zm62.01609,0.73l0,0q-4.35,0 -7.69,-1.61q-3.35,-1.61 -5.64,-5.03q-2.3,-3.42 -3.47,-8.76q-1.17,-5.35 -1.17,-12.87l0,0l0,-12.69q0,-6.4 0.95,-10.97q0.95,-4.56 2.49,-7.66q1.54,-3.1 3.57,-4.91q2.02,-1.81 4.17,-2.76q2.15,-0.95 4.27,-1.22q2.13,-0.27 3.93,-0.27l0,0q3.32,0 6.4,1q3.08,1 5.42,3.42q2.34,2.42 3.74,6.47q1.39,4.05 1.39,10.11l0,0q0,2.05 -0.12,4.15q-0.13,2.1 -0.32,4.12q-0.2,2.03 -0.51,3.94q-0.32,1.9 -0.66,3.51l0,0l-22.32,0l0,6.84q0,4.39 0.34,7.39q0.35,3.01 1.15,4.84q0.81,1.83 2.2,2.64q1.39,0.8 3.49,0.8l0,0q1.12,0 2.2,-0.46q1.07,-0.47 1.88,-1.54q0.8,-1.08 1.29,-2.86q0.49,-1.78 0.49,-4.42l0,0l0,-2.1l10.3,0l0,2.59q0,9.57 -4.56,13.94q-4.57,4.37 -13.21,4.37zm-5.57,-40.33l12.4,0q0.05,-0.54 0.1,-1.44q0.05,-0.9 0.08,-1.88q0.02,-0.98 0.02,-1.93q0,-0.95 0,-1.63l0,0q0,-6.65 -1.56,-9.57q-1.57,-2.93 -4.64,-2.93l0,0q-1.61,0 -2.83,0.75q-1.22,0.76 -2.01,2.54q-0.78,1.78 -1.17,4.71q-0.39,2.93 -0.39,7.28l0,0l0,4.1zm34.56953,39.6l0,-88.82l12.36,0l0,88.82l-12.36,0zm41.45946,0.73l0,0q-4.35,0 -7.69,-1.61q-3.35,-1.61 -5.64,-5.03q-2.3,-3.42 -3.47,-8.76q-1.17,-5.35 -1.17,-12.87l0,0l0,-12.69q0,-6.4 0.95,-10.97q0.95,-4.56 2.49,-7.66q1.54,-3.1 3.57,-4.91q2.02,-1.81 4.17,-2.76q2.15,-0.95 4.27,-1.22q2.13,-0.27 3.93,-0.27l0,0q3.32,0 6.4,1q3.08,1 5.42,3.42q2.34,2.42 3.74,6.47q1.39,4.05 1.39,10.11l0,0q0,2.05 -0.12,4.15q-0.13,2.1 -0.32,4.12q-0.2,2.03 -0.51,3.94q-0.32,1.9 -0.66,3.51l0,0l-22.32,0l0,6.84q0,4.39 0.34,7.39q0.35,3.01 1.15,4.84q0.81,1.83 2.2,2.64q1.39,0.8 3.49,0.8l0,0q1.12,0 2.2,-0.46q1.07,-0.47 1.88,-1.54q0.8,-1.08 1.29,-2.86q0.49,-1.78 0.49,-4.42l0,0l0,-2.1l10.3,0l0,2.59q0,9.57 -4.56,13.94q-4.57,4.37 -13.21,4.37zm-5.57,-40.33l12.4,0q0.05,-0.54 0.1,-1.44q0.05,-0.9 0.08,-1.88q0.02,-0.98 0.02,-1.93q0,-0.95 0,-1.63l0,0q0,-6.65 -1.56,-9.57q-1.57,-2.93 -4.64,-2.93l0,0q-1.61,0 -2.83,0.75q-1.22,0.76 -2.01,2.54q-0.78,1.78 -1.17,4.71q-0.39,2.93 -0.39,7.28l0,0l0,4.1zm35.78953,22.85l0,-41.7l-5.22,0l0,-8.79l6.3,0l2.49,-17.43l8.79,0l0,17.43l10.74,0l0,8.79l-10.74,0l0,42.78q0,2.19 0.41,3.54q0.42,1.34 1.15,2.1q0.73,0.75 1.71,1q0.98,0.24 2.05,0.24l0,0q1.81,0 3.2,-0.44q1.39,-0.44 2.66,-1.22l0,0l0,6.84q-1.08,1.32 -2.32,2.15q-1.25,0.83 -2.56,1.34q-1.32,0.51 -2.69,0.71q-1.37,0.19 -2.69,0.19l0,0q-2.58,0 -4.98,-0.68q-2.39,-0.69 -4.24,-2.61q-1.86,-1.93 -2.96,-5.35q-1.1,-3.42 -1.1,-8.89l0,0zm48.48898,17.48l0,0q-2.15,0 -4.37,-0.34q-2.22,-0.34 -4.3,-1.42q-2.07,-1.07 -3.9,-3.07q-1.83,-2 -3.2,-5.28q-1.37,-3.27 -2.15,-8.05q-0.78,-4.79 -0.78,-11.43l0,0l0,-10.54q0,-6.55 0.81,-11.21q0.8,-4.66 2.19,-7.84q1.39,-3.17 3.25,-5.05q1.86,-1.88 3.93,-2.88q2.08,-1 4.27,-1.32q2.2,-0.32 4.3,-0.32l0,0q2,0 4.15,0.3q2.15,0.29 4.2,1.24q2.05,0.95 3.88,2.83q1.83,1.88 3.22,5.06q1.4,3.17 2.2,7.88q0.81,4.71 0.81,11.31l0,0l0,10.54q0,6.55 -0.83,11.28q-0.83,4.74 -2.25,8.01q-1.42,3.27 -3.27,5.3q-1.86,2.02 -3.91,3.15q-2.05,1.12 -4.17,1.49q-2.13,0.36 -4.08,0.36zm0.1,-9.52l0,0q1.66,0 2.81,-0.85q1.14,-0.86 1.85,-2.81q0.71,-1.95 1.03,-5.15q0.31,-3.2 0.31,-7.94l0,0l0,-16.55q0,-4.74 -0.31,-7.96q-0.32,-3.22 -1.03,-5.2q-0.71,-1.98 -1.85,-2.86q-1.15,-0.87 -2.81,-0.87l0,0q-1.76,0 -2.96,0.87q-1.19,0.88 -1.97,2.86q-0.78,1.98 -1.13,5.2q-0.34,3.22 -0.34,7.96l0,0l0,16.55q0,4.74 0.34,7.94q0.35,3.2 1.13,5.15q0.78,1.95 1.97,2.81q1.2,0.85 2.96,0.85zm29.34672,8.79l0,-67.24l9.52,0l1.12,7.18l0,0.05q1.47,-2.29 3.15,-3.83q1.69,-1.54 3.49,-2.47q1.81,-0.93 3.69,-1.32q1.88,-0.39 3.73,-0.39l0,0q5.91,0 9.11,4.13q3.2,4.12 3.2,12.38l0,0l0,51.51l-12.35,0l0,-51.07q0,-4.45 -1.37,-6.18q-1.37,-1.73 -4.01,-1.73l0,0q-1.85,0 -3.68,1.22q-1.83,1.22 -3.25,3.37l0,0l0,54.39l-12.35,0zm71.97141,0l0,-83.4l13.72,0q2.34,0 5.15,0.2q2.81,0.19 5.62,0.95q2.8,0.76 5.42,2.27q2.61,1.51 4.63,4.15q2.03,2.64 3.25,6.62q1.22,3.98 1.22,9.64l0,0l0,2.1q0,9.52 -2.73,15.5q-2.74,5.98 -8.06,8.62l0,0l13.38,33.35l-13.38,0l-11.08,-31.2l-4.74,0l0,31.2l-12.4,0zm12.4,-40.33l1.91,0q3.32,0 5.61,-0.73q2.3,-0.74 3.71,-2.47q1.42,-1.73 2.05,-4.59q0.64,-2.86 0.64,-7.06l0,0l0,-6.59q0,-3.22 -0.59,-5.56q-0.58,-2.35 -1.98,-3.86q-1.39,-1.52 -3.68,-2.25q-2.3,-0.73 -5.76,-0.73l0,0l-1.91,0l0,33.84zm54.20187,41.06l0,0q-4.35,0 -7.69,-1.61q-3.35,-1.61 -5.64,-5.03q-2.3,-3.42 -3.47,-8.76q-1.17,-5.35 -1.17,-12.87l0,0l0,-12.69q0,-6.4 0.95,-10.97q0.95,-4.56 2.49,-7.66q1.54,-3.1 3.57,-4.91q2.02,-1.81 4.17,-2.76q2.15,-0.95 4.27,-1.22q2.13,-0.27 3.93,-0.27l0,0q3.32,0 6.4,1q3.08,1 5.42,3.42q2.34,2.42 3.74,6.47q1.39,4.05 1.39,10.11l0,0q0,2.05 -0.12,4.15q-0.13,2.1 -0.32,4.12q-0.2,2.03 -0.51,3.94q-0.32,1.9 -0.66,3.51l0,0l-22.32,0l0,6.84q0,4.39 0.34,7.39q0.35,3.01 1.15,4.84q0.81,1.83 2.2,2.64q1.39,0.8 3.49,0.8l0,0q1.12,0 2.2,-0.46q1.07,-0.47 1.88,-1.54q0.8,-1.08 1.29,-2.86q0.49,-1.78 0.49,-4.42l0,0l0,-2.1l10.3,0l0,2.59q0,9.57 -4.56,13.94q-4.57,4.37 -13.21,4.37zm-5.57,-40.33l12.4,0q0.05,-0.54 0.1,-1.44q0.05,-0.9 0.08,-1.88q0.02,-0.98 0.02,-1.93q0,-0.95 0,-1.63l0,0q0,-6.65 -1.56,-9.57q-1.57,-2.93 -4.64,-2.93l0,0q-1.61,0 -2.83,0.75q-1.22,0.76 -2.01,2.54q-0.78,1.78 -1.17,4.71q-0.39,2.93 -0.39,7.28l0,0l0,4.1zm34.37953,39.6l0,-88.82l12.35,0l0,15.82l-0.63,11.53q1.36,-1.91 2.95,-3.15q1.59,-1.25 3.27,-2.01q1.69,-0.75 3.42,-1.07q1.73,-0.32 3.44,-0.32l0,0q5.91,0 9.11,4.13q3.2,4.12 3.2,12.38l0,0l0,51.51l-12.36,0l0,-51.07q0,-4.45 -1.36,-6.18q-1.37,-1.73 -4.01,-1.73l0,0q-1.85,0 -3.73,1.24q-1.88,1.25 -3.3,3.44l0,0l0,54.3l-12.35,0zm59.18235,0.73l0,0q-3.13,0 -5.55,-1.24q-2.41,-1.25 -4.07,-3.4q-1.66,-2.14 -2.52,-5.1q-0.85,-2.95 -0.85,-6.42l0,0q0,-4.15 1.02,-7.37q1.03,-3.23 3.01,-5.81q1.97,-2.59 4.9,-4.72q2.93,-2.12 6.79,-4.02l0,0q1.85,-0.93 4.17,-1.88q2.32,-0.96 4.13,-1.64l0,0l0,-8.89q0,-1.95 -0.15,-3.63q-0.14,-1.69 -0.7,-2.93q-0.57,-1.25 -1.69,-1.96q-1.12,-0.7 -3.08,-0.7l0,0q-1.31,0 -2.56,0.48q-1.24,0.49 -2.2,1.66q-0.95,1.18 -1.51,3.13q-0.56,1.95 -0.56,4.83l0,0l0,2.93l-9.42,0q-0.44,-1.9 -0.66,-3.49q-0.22,-1.59 -0.22,-3.15l0,0q0,-3.76 1.29,-6.64q1.29,-2.88 3.61,-4.83q2.32,-1.96 5.55,-2.96q3.22,-1 7.08,-1l0,0q5.02,0 8.35,1.1q3.32,1.1 5.29,3.3q1.98,2.19 2.79,5.51q0.8,3.32 0.8,7.77l0,0l0,50.34l-9.18,0l-0.88,-5.76q-2,2.88 -5.34,4.69q-3.35,1.8 -7.64,1.8zm5.46,-9.52l0,0q1.57,0 3.06,-0.8q1.48,-0.81 2.51,-1.98l0,0l0,-21.05q-0.98,0.39 -2.2,0.93q-1.22,0.54 -2.63,1.42l0,0q-1.32,0.83 -2.59,2q-1.27,1.17 -2.27,2.78q-1,1.61 -1.61,3.64q-0.61,2.03 -0.61,4.52l0,0q0,3.85 1.51,6.2q1.51,2.34 4.83,2.34zm30.37718,8.79l0,-88.82l12.35,0l0,17.92l-0.39,8.89l0.05,0.05q0.83,-1.17 1.93,-2.25q1.1,-1.07 2.49,-1.93q1.39,-0.85 3.07,-1.34q1.69,-0.49 3.69,-0.49l0,0q1.03,0 2.47,0.2q1.44,0.19 2.98,0.97q1.53,0.78 3.07,2.32q1.54,1.54 2.74,4.23q1.19,2.68 1.95,6.69q0.76,4 0.76,9.71l0,0l0,20.36q0,5.72 -0.76,9.72q-0.76,4 -1.98,6.71q-1.22,2.71 -2.78,4.28q-1.56,1.56 -3.18,2.34q-1.61,0.78 -3.12,1q-1.51,0.22 -2.64,0.22l0,0q-2.34,0 -4.22,-0.58q-1.88,-0.59 -3.32,-1.59q-1.44,-1 -2.54,-2.27q-1.1,-1.27 -1.93,-2.59l0,0l-1.02,6.25l-9.67,0zm12.35,-54.44l0,40.82q0.39,0.92 0.95,1.8q0.56,0.88 1.3,1.54q0.73,0.66 1.71,1.08q0.97,0.41 2.19,0.41l0,0q1.37,0 2.49,-0.51q1.13,-0.51 1.96,-1.86q0.83,-1.34 1.29,-3.73q0.46,-2.4 0.46,-6.15l0,0l0,-25.74q0,-3.76 -0.46,-6.13q-0.46,-2.36 -1.27,-3.73q-0.8,-1.37 -1.93,-1.86q-1.12,-0.48 -2.49,-0.48l0,0q-2.29,0 -3.78,1.34q-1.49,1.34 -2.42,3.2l0,0zm42.53102,-22.42l0,0q-3.42,0 -5.4,-2.05q-1.97,-2.05 -1.97,-6l0,0q0,-2.2 0.51,-3.69q0.51,-1.49 1.46,-2.39q0.96,-0.9 2.32,-1.32q1.37,-0.41 3.13,-0.41l0,0q3.66,0 5.56,1.85q1.91,1.86 1.91,5.96l0,0q0,3.81 -1.93,5.93q-1.93,2.12 -5.59,2.12zm-6.4,76.86l0,-67.24l12.36,0l0,67.24l-12.36,0zm25.43945,0l0,-88.82l12.36,0l0,88.82l-12.36,0zm31.83946,-76.86l0,0q-3.42,0 -5.4,-2.05q-1.97,-2.05 -1.97,-6l0,0q0,-2.2 0.51,-3.69q0.51,-1.49 1.46,-2.39q0.96,-0.9 2.32,-1.32q1.37,-0.41 3.13,-0.41l0,0q3.66,0 5.56,1.85q1.91,1.86 1.91,5.96l0,0q0,3.81 -1.93,5.93q-1.93,2.12 -5.59,2.12zm-6.4,76.86l0,-67.24l12.36,0l0,67.24l-12.36,0zm26.65945,-16.75l0,-41.7l-5.22,0l0,-8.79l6.3,0l2.49,-17.43l8.79,0l0,17.43l10.74,0l0,8.79l-10.74,0l0,42.78q0,2.19 0.41,3.54q0.42,1.34 1.15,2.1q0.73,0.75 1.71,1q0.98,0.24 2.05,0.24l0,0q1.81,0 3.2,-0.44q1.39,-0.44 2.66,-1.22l0,0l0,6.84q-1.08,1.32 -2.32,2.15q-1.25,0.83 -2.56,1.34q-1.32,0.51 -2.69,0.71q-1.37,0.19 -2.69,0.19l0,0q-2.58,0 -4.98,-0.68q-2.39,-0.69 -4.24,-2.61q-1.86,-1.93 -2.96,-5.35q-1.1,-3.42 -1.1,-8.89l0,0zm40.82898,17.48l0,0q-3.13,0 -5.55,-1.24q-2.41,-1.25 -4.07,-3.4q-1.66,-2.14 -2.52,-5.1q-0.85,-2.95 -0.85,-6.42l0,0q0,-4.15 1.02,-7.37q1.03,-3.23 3.01,-5.81q1.97,-2.59 4.9,-4.72q2.93,-2.12 6.79,-4.02l0,0q1.85,-0.93 4.17,-1.88q2.32,-0.96 4.13,-1.64l0,0l0,-8.89q0,-1.95 -0.15,-3.63q-0.14,-1.69 -0.7,-2.93q-0.57,-1.25 -1.69,-1.96q-1.12,-0.7 -3.08,-0.7l0,0q-1.31,0 -2.56,0.48q-1.24,0.49 -2.2,1.66q-0.95,1.18 -1.51,3.13q-0.56,1.95 -0.56,4.83l0,0l0,2.93l-9.42,0q-0.44,-1.9 -0.66,-3.49q-0.22,-1.59 -0.22,-3.15l0,0q0,-3.76 1.29,-6.64q1.29,-2.88 3.61,-4.83q2.32,-1.96 5.55,-2.96q3.22,-1 7.08,-1l0,0q5.02,0 8.35,1.1q3.32,1.1 5.29,3.3q1.98,2.19 2.79,5.51q0.8,3.32 0.8,7.77l0,0l0,50.34l-9.18,0l-0.88,-5.76q-2,2.88 -5.34,4.69q-3.35,1.8 -7.64,1.8zm5.46,-9.52l0,0q1.57,0 3.06,-0.8q1.48,-0.81 2.51,-1.98l0,0l0,-21.05q-0.98,0.39 -2.2,0.93q-1.22,0.54 -2.63,1.42l0,0q-1.32,0.83 -2.59,2q-1.27,1.17 -2.27,2.78q-1,1.61 -1.61,3.64q-0.61,2.03 -0.61,4.52l0,0q0,3.85 1.51,6.2q1.51,2.34 4.83,2.34zm31.78719,-7.96l0,-41.7l-5.22,0l0,-8.79l6.3,0l2.49,-17.43l8.79,0l0,17.43l10.74,0l0,8.79l-10.74,0l0,42.78q0,2.19 0.41,3.54q0.42,1.34 1.15,2.1q0.73,0.75 1.71,1q0.98,0.24 2.05,0.24l0,0q1.81,0 3.2,-0.44q1.39,-0.44 2.66,-1.22l0,0l0,6.84q-1.08,1.32 -2.32,2.15q-1.25,0.83 -2.56,1.34q-1.32,0.51 -2.69,0.71q-1.37,0.19 -2.69,0.19l0,0q-2.58,0 -4.98,-0.68q-2.39,-0.69 -4.24,-2.61q-1.86,-1.93 -2.96,-5.35q-1.1,-3.42 -1.1,-8.89l0,0zm38.13898,-60.11l0,0q-3.42,0 -5.4,-2.05q-1.97,-2.05 -1.97,-6l0,0q0,-2.2 0.51,-3.69q0.51,-1.49 1.46,-2.39q0.96,-0.9 2.32,-1.32q1.37,-0.41 3.13,-0.41l0,0q3.66,0 5.56,1.85q1.91,1.86 1.91,5.96l0,0q0,3.81 -1.93,5.93q-1.93,2.12 -5.59,2.12zm-6.4,76.86l0,-67.24l12.36,0l0,67.24l-12.36,0zm42.18946,0.73l0,0q-2.15,0 -4.37,-0.34q-2.22,-0.34 -4.3,-1.42q-2.07,-1.07 -3.9,-3.07q-1.83,-2 -3.2,-5.28q-1.37,-3.27 -2.15,-8.05q-0.78,-4.79 -0.78,-11.43l0,0l0,-10.54q0,-6.55 0.81,-11.21q0.8,-4.66 2.19,-7.84q1.39,-3.17 3.25,-5.05q1.86,-1.88 3.93,-2.88q2.08,-1 4.27,-1.32q2.2,-0.32 4.3,-0.32l0,0q2,0 4.15,0.3q2.15,0.29 4.2,1.24q2.05,0.95 3.88,2.83q1.83,1.88 3.22,5.06q1.4,3.17 2.2,7.88q0.81,4.71 0.81,11.31l0,0l0,10.54q0,6.55 -0.83,11.28q-0.83,4.74 -2.25,8.01q-1.42,3.27 -3.27,5.3q-1.86,2.02 -3.91,3.15q-2.05,1.12 -4.17,1.49q-2.13,0.36 -4.08,0.36zm0.1,-9.52l0,0q1.66,0 2.81,-0.85q1.14,-0.86 1.85,-2.81q0.71,-1.95 1.03,-5.15q0.31,-3.2 0.31,-7.94l0,0l0,-16.55q0,-4.74 -0.31,-7.96q-0.32,-3.22 -1.03,-5.2q-0.71,-1.98 -1.85,-2.86q-1.15,-0.87 -2.81,-0.87l0,0q-1.76,0 -2.96,0.87q-1.19,0.88 -1.97,2.86q-0.78,1.98 -1.13,5.2q-0.34,3.22 -0.34,7.96l0,0l0,16.55q0,4.74 0.34,7.94q0.35,3.2 1.13,5.15q0.78,1.95 1.97,2.81q1.2,0.85 2.96,0.85zm29.34672,8.79l0,-67.24l9.52,0l1.12,7.18l0,0.05q1.47,-2.29 3.15,-3.83q1.69,-1.54 3.49,-2.47q1.81,-0.93 3.69,-1.32q1.88,-0.39 3.73,-0.39l0,0q5.91,0 9.11,4.13q3.2,4.12 3.2,12.38l0,0l0,51.51l-12.35,0l0,-51.07q0,-4.45 -1.37,-6.18q-1.37,-1.73 -4.01,-1.73l0,0q-1.85,0 -3.68,1.22q-1.83,1.22 -3.25,3.37l0,0l0,54.39l-12.35,0zm71.9714,0l0,-83.4l13.72,0q2.34,0 5.15,0.2q2.81,0.19 5.62,0.95q2.8,0.76 5.42,2.27q2.61,1.51 4.63,4.15q2.03,2.64 3.25,6.62q1.22,3.98 1.22,9.64l0,0l0,2.1q0,9.52 -2.73,15.5q-2.74,5.98 -8.06,8.62l0,0l13.38,33.35l-13.38,0l-11.08,-31.2l-4.74,0l0,31.2l-12.4,0zm12.4,-40.33l1.91,0q3.32,0 5.61,-0.73q2.3,-0.74 3.71,-2.47q1.42,-1.73 2.05,-4.59q0.64,-2.86 0.64,-7.06l0,0l0,-6.59q0,-3.22 -0.59,-5.56q-0.58,-2.35 -1.98,-3.86q-1.39,-1.52 -3.68,-2.25q-2.3,-0.73 -5.76,-0.73l0,0l-1.91,0l0,33.84zm54.93188,41.06l0,0q-2.15,0 -4.37,-0.34q-2.22,-0.34 -4.3,-1.42q-2.07,-1.07 -3.9,-3.07q-1.83,-2 -3.2,-5.28q-1.37,-3.27 -2.15,-8.05q-0.78,-4.79 -0.78,-11.43l0,0l0,-10.54q0,-6.55 0.81,-11.21q0.8,-4.66 2.19,-7.84q1.39,-3.17 3.25,-5.05q1.86,-1.88 3.93,-2.88q2.08,-1 4.27,-1.32q2.2,-0.32 4.3,-0.32l0,0q2,0 4.15,0.3q2.15,0.29 4.2,1.24q2.05,0.95 3.88,2.83q1.83,1.88 3.22,5.06q1.4,3.17 2.2,7.88q0.81,4.71 0.81,11.31l0,0l0,10.54q0,6.55 -0.83,11.28q-0.83,4.74 -2.25,8.01q-1.42,3.27 -3.27,5.3q-1.86,2.02 -3.91,3.15q-2.05,1.12 -4.17,1.49q-2.13,0.36 -4.08,0.36zm0.1,-9.52l0,0q1.66,0 2.81,-0.85q1.14,-0.86 1.85,-2.81q0.71,-1.95 1.03,-5.15q0.31,-3.2 0.31,-7.94l0,0l0,-16.55q0,-4.74 -0.31,-7.96q-0.32,-3.22 -1.03,-5.2q-0.71,-1.98 -1.85,-2.86q-1.15,-0.87 -2.81,-0.87l0,0q-1.76,0 -2.96,0.87q-1.19,0.88 -1.97,2.86q-0.78,1.98 -1.13,5.2q-0.34,3.22 -0.34,7.96l0,0l0,16.55q0,4.74 0.34,7.94q0.35,3.2 1.13,5.15q0.78,1.95 1.97,2.81q1.2,0.85 2.96,0.85zm29.34672,8.79l0,-88.82l12.35,0l0,17.92l-0.39,8.89l0.05,0.05q0.83,-1.17 1.93,-2.25q1.1,-1.07 2.49,-1.93q1.39,-0.85 3.07,-1.34q1.69,-0.49 3.69,-0.49l0,0q1.03,0 2.47,0.2q1.44,0.19 2.98,0.97q1.53,0.78 3.07,2.32q1.54,1.54 2.74,4.23q1.19,2.68 1.95,6.69q0.76,4 0.76,9.71l0,0l0,20.36q0,5.72 -0.76,9.72q-0.76,4 -1.98,6.71q-1.22,2.71 -2.78,4.28q-1.56,1.56 -3.18,2.34q-1.61,0.78 -3.12,1q-1.51,0.22 -2.64,0.22l0,0q-2.34,0 -4.22,-0.58q-1.88,-0.59 -3.32,-1.59q-1.44,-1 -2.54,-2.27q-1.1,-1.27 -1.93,-2.59l0,0l-1.02,6.25l-9.67,0zm12.35,-54.44l0,40.82q0.39,0.92 0.95,1.8q0.56,0.88 1.3,1.54q0.73,0.66 1.71,1.08q0.97,0.41 2.19,0.41l0,0q1.37,0 2.49,-0.51q1.13,-0.51 1.96,-1.86q0.83,-1.34 1.29,-3.73q0.46,-2.4 0.46,-6.15l0,0l0,-25.74q0,-3.76 -0.46,-6.13q-0.46,-2.36 -1.27,-3.73q-0.8,-1.37 -1.93,-1.86q-1.12,-0.48 -2.49,-0.48l0,0q-2.29,0 -3.78,1.34q-1.49,1.34 -2.42,3.2l0,0zm52.88101,55.17l0,0q-2.15,0 -4.37,-0.34q-2.22,-0.34 -4.3,-1.42q-2.07,-1.07 -3.9,-3.07q-1.83,-2 -3.2,-5.28q-1.37,-3.27 -2.15,-8.05q-0.78,-4.79 -0.78,-11.43l0,0l0,-10.54q0,-6.55 0.81,-11.21q0.8,-4.66 2.19,-7.84q1.39,-3.17 3.25,-5.05q1.86,-1.88 3.93,-2.88q2.08,-1 4.27,-1.32q2.2,-0.32 4.3,-0.32l0,0q2,0 4.15,0.3q2.15,0.29 4.2,1.24q2.05,0.95 3.88,2.83q1.83,1.88 3.22,5.06q1.4,3.17 2.2,7.88q0.81,4.71 0.81,11.31l0,0l0,10.54q0,6.55 -0.83,11.28q-0.83,4.74 -2.25,8.01q-1.42,3.27 -3.27,5.3q-1.86,2.02 -3.91,3.15q-2.05,1.12 -4.17,1.49q-2.13,0.36 -4.08,0.36zm0.1,-9.52l0,0q1.66,0 2.81,-0.85q1.14,-0.86 1.85,-2.81q0.71,-1.95 1.03,-5.15q0.31,-3.2 0.31,-7.94l0,0l0,-16.55q0,-4.74 -0.31,-7.96q-0.32,-3.22 -1.03,-5.2q-0.71,-1.98 -1.85,-2.86q-1.15,-0.87 -2.81,-0.87l0,0q-1.76,0 -2.96,0.87q-1.19,0.88 -1.97,2.86q-0.78,1.98 -1.13,5.2q-0.34,3.22 -0.34,7.96l0,0l0,16.55q0,4.74 0.34,7.94q0.35,3.2 1.13,5.15q0.78,1.95 1.97,2.81q1.2,0.85 2.96,0.85zm30.75672,-7.96l0,-41.7l-5.22,0l0,-8.79l6.3,0l2.49,-17.43l8.79,0l0,17.43l10.74,0l0,8.79l-10.74,0l0,42.78q0,2.19 0.41,3.54q0.42,1.34 1.15,2.1q0.73,0.75 1.71,1q0.98,0.24 2.05,0.24l0,0q1.81,0 3.2,-0.44q1.39,-0.44 2.66,-1.22l0,0l0,6.84q-1.08,1.32 -2.32,2.15q-1.25,0.83 -2.56,1.34q-1.32,0.51 -2.69,0.71q-1.37,0.19 -2.69,0.19l0,0q-2.58,0 -4.98,-0.68q-2.39,-0.69 -4.24,-2.61q-1.86,-1.93 -2.96,-5.35q-1.1,-3.42 -1.1,-8.89l0,0z"/>
   <rect id="svg_77" height="0" width="0" y="157.51056" x="-977.92868"/>
  </g>
  <g id="svg_78" class="svg-clip svg-visible" transform="matrix(0.5876,0,0,0.5876,719.8322,377.6018) ">
   <rect id="svg_79" class="svg-hitbox" fill="none" height="74" width="70" y="69.77536" x="-490.12935"/>
   <g id="svg_10">
    <svg y="69.77536" x="-490.12935" id="svg_80" viewBox="-3.0113186271267063,-4.999999999999995,70.0113186271267,74.00701405577126" height="74.00701" width="70.01132">
     <desc>Created with Snap</desc>

     <g id="svg_81">
      <path id="svg_82" fill="url('#linearGradientSkjjlfcerjuj')" d="m58,47c-0.5,0 -0.9,0.1 -1.3,0.2l-6.7,-6.6l0,-1c4,-1.3 6.7,-5.1 6.6,-9.4c0,-2.1 -0.6,-4.1 -1.8,-5.9c1.2,-1.7 1.8,-3.8 1.8,-5.9c0.1,-4.6 -3,-8.6 -7.5,-9.6c-0.4,-5 -4.3,-8.8 -9,-8.8c-3.5,0.1 -6.7,2.2 -8.1,5.5c-1.3,-3.2 -4.4,-5.4 -7.9,-5.5c-4.7,0 -8.5,3.9 -8.9,8.8c-4.5,1 -7.7,5 -7.5,9.6c0,2.1 0.6,4.2 1.8,5.9c-1.2,1.7 -1.8,3.8 -1.8,5.9c-0.1,4.1 2.4,7.9 6.3,9.3l0,1.1l-6.7,6.7c-2.1,-0.7 -4.4,0.4 -5.1,2.4c-0.7,2.1 0.4,4.4 2.4,5.1s4.4,-0.4 5.1,-2.4c0.2,-0.5 0.3,-0.9 0.3,-1.4c0,-1 -0.4,-1.9 -1,-2.6l6.6,-6.6c0.5,2 1.6,3.7 3.1,5.1l-1.7,1.7l0,5.6c-2.1,0.6 -3.4,2.7 -2.9,4.9c0.6,2.1 2.7,3.4 4.9,2.9s3.4,-2.7 2.9,-4.9c-0.4,-1.4 -1.5,-2.5 -2.9,-2.9l0,-4.7l1.4,-1.4c1.2,0.6 2.5,0.9 3.8,0.9c2.7,0 5.3,-1.4 6.8,-3.7l0,10.8c-2.1,0.6 -3.4,2.7 -2.9,4.9c0.6,2.1 2.7,3.4 4.9,2.9c2.1,-0.6 3.4,-2.7 2.9,-4.9c-0.4,-1.4 -1.5,-2.5 -2.9,-2.9l0,-11c1.6,2.4 4.3,3.8 7.1,3.9c0.9,0 1.9,-0.2 2.8,-0.5l2.1,2.1l0,3.7c-2.1,0.8 -3.1,3.2 -2.3,5.2s3.2,3.1 5.2,2.3s3.1,-3.2 2.3,-5.2c-0.5,-1.4 -1.8,-2.3 -3.2,-2.5l0,-4.3l-2.2,-2.2c1.9,-1.3 3.3,-3.2 3.9,-5.5l6.3,6.3c-0.6,0.7 -1,1.6 -1,2.6c0,2.2 1.8,4 4,4s4,-1.8 4,-4s-1.8,-4 -4,-4zm-52,6c-1.1,0 -2,-0.9 -2,-2s0.9,-2 2,-2s2,0.9 2,2s-0.9,2 -2,2zm14,5c0,1.1 -0.9,2 -2,2s-2,-0.9 -2,-2s0.9,-2 2,-2s2,0.9 2,2zm28.5,0c0,1.1 -0.9,2 -2,2s-2,-0.9 -2,-2s0.9,-2 2,-2s2,0.9 2,2zm-24.3,-11c-0.8,0 -1.6,-0.2 -2.3,-0.4l2.1,-2.1l0,-3.5l-2,0l0,2.6l-1.9,1.9c-1.8,-1.5 -2.9,-3.8 -2.8,-6.2c0,-4.5 3.1,-8.3 6.8,-8.3l0,-2c-4.3,0 -8,3.9 -8.6,8.8c-3.4,-0.9 -5.8,-4 -5.7,-7.6c0,-1.1 0.2,-2.2 0.6,-3.2c0.8,1.8 2.6,3 4.6,3l0,-2c-1.8,-0.1 -3.2,-1.7 -3.1,-3.5c-0.1,-1.8 1.3,-3.4 3.1,-3.5l0,-2c-1.9,0 -3.7,1.1 -4.5,2.9c-0.5,-1.1 -0.7,-2.2 -0.7,-3.4c-0.1,-3.5 2.2,-6.6 5.5,-7.6c0.4,5.1 4.1,9.1 8.7,9.1l0,-2c-3.7,0 -6.8,-3.8 -6.8,-8.2c0,-4.3 3.1,-7.8 7,-7.8c3.8,0 6.8,3.6 6.8,8l0,10.1c-0.8,-0.7 -1.9,-1.1 -3,-1.1l0,2c1.8,0.1 3.1,1.7 3,3.5c0,0 0,0 0,0c0.1,1.8 -1.2,3.4 -3,3.5c0,0 0,0 0,0l0,2c1.1,0 2.2,-0.4 3,-1.1l0,10.1c0,4.3 -3.1,8 -6.8,8zm9.8,13c0,1.1 -0.9,2 -2,2c-1.1,0 -2,-0.9 -2,-2s0.9,-2 2,-2c1.1,0 2,0.9 2,2zm9.4,-13.9l-2.4,-2.3l0,-2.8l-2,0l0,3.6l2.3,2.3c-0.4,0.1 -0.8,0.1 -1.2,0.1c-3.8,0 -7.1,-3.7 -7.1,-8l0,-10.1c0.8,0.7 1.9,1.1 3,1.1l0,-2c-1.7,0 -3,-1.5 -3,-3.5s1.3,-3.5 3,-3.5l0,-2c-1.1,0 -2.2,0.4 -3,1.1l0,-10.1c0,-4.3 3.3,-8 7.1,-8c3.9,0 7,3.5 7,7.8s-3.1,7.8 -7,7.8l0,2c4.6,0 8.4,-3.8 8.9,-8.7c3.4,0.9 5.7,4.1 5.5,7.6c0,1.2 -0.2,2.3 -0.7,3.4c-0.8,-1.7 -2.6,-2.8 -4.5,-2.9l0,2c1.8,0.1 3.2,1.7 3.1,3.6c0.1,1.8 -1.3,3.4 -3.1,3.5l0,2c2,0 3.8,-1.2 4.6,-3c0.4,1 0.6,2.1 0.6,3.2c0.1,3.6 -2.2,6.7 -5.7,7.6c-0.7,-4.6 -4.4,-8.2 -8.8,-8.2l0,2c3.8,0 6.9,3.5 6.9,7.7c0.2,2.7 -1.2,5.3 -3.5,6.7zm14.6,6.9c-1.1,0 -2,-0.9 -2,-2s0.9,-2 2,-2s2,0.9 2,2s-0.9,2 -2,2z"/>
     </g>
    </svg>
   </g>
  </g>
  <g id="svg_83" class="svg-clip svg-visible" transform="matrix(-2.5351,0.1773,0.1695,2.4238,596.9798,34.4932) ">
   <rect id="svg_84" class="svg-hitbox" fill="none" height="73" width="71" y="8.56354" x="114.17755"/>
   <g id="svg_11">
    <svg y="8.56354" x="114.17755" id="svg_85" viewBox="7.005454160486927,4.087038500198851,71.10304635077651,73.62062918160547" height="73.62063" width="71.10305">
     <desc>Created with Snap</desc>

     <g id="svg_86">
      <path id="svg_87" fill="url('#linearGradientSkjjlfcerkd5')" d="m72.7,70.6c-3.9,-3 -7,-6.8 -8.6,-11.5c-1.6,-5 2.2,-8.5 4,-12.7c2.7,-6.6 3.6,-13.7 1.8,-20.7c-3.5,-12.8 -18.4,-16.2 -30,-16.6c-13.1,-0.4 -20.5,8.5 -21.5,20.9c-0.4,4.2 1.3,8.9 -1.9,12.3c-1.3,1.4 -4.1,3 -4.4,5.2c-0.3,1.8 0.1,3.3 1.4,4.6c0.4,0.4 1.1,0.5 1.7,0.6c3.4,0.4 2.9,3.1 2.7,5.4c-0.1,0.6 0.6,1.3 1.3,1.3c0.9,-0.1 1.8,-0.1 2.7,-0.2c1.6,-0.1 1.6,-2.6 0,-2.5c-0.9,0 -1.8,0.1 -2.7,0.2c0.4,0.4 0.8,0.8 1.3,1.3c0.3,-3 1.1,-7.2 -3.2,-7.7c-5.9,-0.6 0.3,-5.6 1.8,-7.1c1.4,-1.4 1.8,-3.2 2,-5c0.4,-3.1 -0.3,-6.3 0,-9.5c0.3,-3.5 1.4,-6.9 3.1,-9.9c3.8,-6.6 11.5,-7.5 18.4,-7.1c6.5,0.4 13.5,2.1 18.9,5.8c7.2,4.8 7.8,15.1 6.1,22.6c-1.4,6.4 -6.6,11.1 -6.2,17.9c0.4,5.6 5.3,11 9.5,14.3c1.3,0.8 3,-0.9 1.8,-1.9l0,0z"/>
     </g>
    </svg>
   </g>
  </g>
  <g id="svg_88" class="svg-clip svg-visible" transform="matrix(-2.5351,0.1773,0.1695,2.4238,588.6372,151.9894) ">
   <rect id="svg_89" class="svg-hitbox" fill="none" height="31" width="32" y="8.56354" x="114.17755"/>
   <g id="svg_12">
    <svg y="8.56354" x="114.17755" id="svg_90" viewBox="13.035512229900007,51.53188401841131,32.132939536427976,31.980918453412748" height="31.98092" width="32.13294">
     <desc>Created with Snap</desc>

     <g id="svg_91">
      <path id="svg_92" fill="url('#linearGradientSkjjlfcerkd8')" d="m40,77.3c0.1,-2.2 0.6,-6.2 -0.8,-8.1c-1.7,-2.2 -5,-1.8 -7.4,-1.5c-3.6,0.3 -11,2.2 -9.9,-3.6c0.2,-1.2 0.8,-1.9 0.1,-3.1c-0.4,-0.6 -0.7,-1.3 -1,-1.2c0.9,-0.3 1.8,-0.5 2.7,-0.8c1.5,-0.5 0.9,-2.9 -0.7,-2.4c-1,0.3 -6.4,1.2 -4.6,3.6c1.5,1.9 1,3 0.8,5.2c-0.2,1.5 0.4,2.8 1.3,4c1.9,2.4 8,1.1 10.5,0.9c1.7,-0.2 5.8,-1.1 6.4,1.2c0.5,1.8 0.3,4 0.2,5.9c-0.2,1.5 2.3,1.5 2.4,-0.1l0,0z"/>
     </g>
    </svg>
   </g>
  </g>
  <g id="svg_93" class="svg-clip svg-visible" transform="matrix(-2.5351,0.1773,0.1695,2.4238,520.0866,64.227) ">
   <rect id="svg_94" class="svg-hitbox" fill="none" height="29" width="29" y="8.56354" x="114.17755"/>
   <g id="svg_13">
    <svg y="8.56354" x="114.17755" id="svg_95" viewBox="38.29417851232652,14.094178512326511,29.227629192493893,29.21164297534698" height="29.21164" width="29.22763">
     <desc>Created with Snap</desc>

     <g id="svg_96">
      <path id="svg_97" fill="url('#linearGradientSkjjlfcerkdb')" d="m59.9,28l-0.2,0c-0.1,-0.7 -0.3,-1.3 -0.6,-2l0.2,-0.2c1,-0.8 1.6,-1.7 1.6,-2.5c0,-0.2 -0.1,-0.4 -0.2,-0.6c-0.5,-0.7 -2,-0.5 -3.3,0.5l-0.3,0.2c-0.5,-0.4 -1.1,-0.7 -1.7,-0.9l0,-0.2c0,-0.3 0.1,-0.5 0.1,-0.8c0,-1.3 -0.5,-2.3 -1.2,-2.4c-0.9,-0.1 -1.7,1.1 -2,2.7l0,0.3c-0.6,0.1 -1.2,0.2 -1.8,0.5l-0.3,-0.4c-0.8,-1 -1.7,-1.6 -2.5,-1.6c-0.2,0 -0.4,0.1 -0.6,0.2c-0.7,0.5 -0.4,2 0.5,3.3l0.3,0.3c-0.4,0.5 -0.8,1 -1,1.6l-0.4,0c-0.3,0 -0.5,-0.1 -0.8,-0.1c-1.3,0 -2.3,0.5 -2.4,1.2c-0.1,0.9 1.1,1.7 2.7,2l0.3,0c0,0.7 0.2,1.4 0.4,2l-0.1,0.1c-1,0.8 -1.6,1.7 -1.6,2.4c0,0.2 0.1,0.4 0.2,0.6c0.5,0.7 2,0.4 3.3,-0.5l0.1,-0.1c0.5,0.5 1.2,0.9 1.9,1.2l0,0.3c0,0.3 -0.1,0.5 -0.1,0.8c0,1.3 0.5,2.3 1.2,2.4c0.9,0.1 1.7,-1.1 2,-2.7l0,-0.2c0.8,-0.1 1.5,-0.3 2.2,-0.6c0.8,1 1.7,1.6 2.4,1.6c0.2,0 0.4,-0.1 0.6,-0.2c0.7,-0.5 0.4,-2 -0.6,-3.3l0,0c0.5,-0.6 0.8,-1.2 1.1,-1.9l0.1,0c0.3,0 0.5,0 0.7,0c1.3,0 2.3,-0.5 2.4,-1.2c0.2,-0.7 -1,-1.6 -2.6,-1.8zm-3.8,1.1c0,0.3 -0.1,0.5 -0.2,0.8c-0.1,0.3 -0.2,0.5 -0.4,0.7c-0.4,0.4 -0.8,0.8 -1.3,1c-0.2,0.1 -0.5,0.2 -0.8,0.2c-0.3,0 -0.6,0 -0.8,0s-0.5,-0.1 -0.8,-0.2c-0.3,-0.1 -0.5,-0.3 -0.7,-0.4c-0.4,-0.3 -0.8,-0.8 -1,-1.3c-0.1,-0.3 -0.2,-0.5 -0.2,-0.8c0,-0.3 0,-0.6 0,-0.8c0,-0.3 0.1,-0.6 0.2,-0.8c0.1,-0.3 0.2,-0.5 0.4,-0.7c0.3,-0.4 0.8,-0.8 1.3,-1c0.2,-0.1 0.5,-0.2 0.8,-0.2c0.3,0 0.5,0 0.8,0c0.3,0 0.5,0.1 0.8,0.2c0.3,0.1 0.5,0.3 0.7,0.4c0.4,0.3 0.8,0.8 1,1.3c0.1,0.2 0.2,0.5 0.2,0.8c0.1,0.2 0.1,0.5 0,0.8z"/>
     </g>
    </svg>
   </g>
  </g>
  <g id="svg_98" class="svg-clip svg-visible" transform="matrix(-2.5351,0.1773,0.1695,2.4238,554.7306,49.626) ">
   <rect id="svg_99" class="svg-hitbox" fill="none" height="27" width="27" y="8.56354" x="114.17755"/>
   <g id="svg_14">
    <svg y="8.56354" x="114.17755" id="svg_100" viewBox="23.3936908893815,8.593690889381502,27.612618221237017,27.612618221237" height="27.61262" width="27.61262">
     <desc>Created with Snap</desc>

     <g id="svg_101">
      <path id="svg_102" fill="url('#linearGradientSkjjlfcerkde')" d="m43.5,21.6l-0.2,0c-0.1,-0.6 -0.3,-1.2 -0.5,-1.8l0.2,-0.1c0.9,-0.7 1.5,-1.6 1.5,-2.3c0,-0.2 -0.1,-0.4 -0.2,-0.5c-0.5,-0.6 -1.8,-0.4 -3,0.5l-0.3,0.2c-0.5,-0.4 -1,-0.7 -1.5,-0.9l0,-0.2c0,-0.2 0,-0.5 0,-0.7c0,-1.2 -0.4,-2.1 -1.1,-2.2c-0.8,-0.1 -1.6,1 -1.8,2.5l0,0.2c-0.6,0.1 -1.1,0.2 -1.6,0.4l-0.3,-0.4c-0.7,-0.9 -1.6,-1.5 -2.3,-1.5c-0.2,0 -0.4,0.1 -0.5,0.2c-0.6,0.5 -0.4,1.9 0.5,3l0.2,0.3c-0.4,0.4 -0.7,0.9 -0.9,1.5l-0.4,0c-0.2,0 -0.5,0 -0.7,0c-1.2,0 -2.1,0.4 -2.2,1.1c-0.1,0.8 1,1.6 2.5,1.8l0.2,0c0,0.6 0.2,1.3 0.4,1.8l-0.1,0.1c-0.9,0.9 -1.4,1.8 -1.4,2.4c0,0.2 0.1,0.4 0.2,0.5c0.5,0.6 1.8,0.4 3,-0.5l0.1,0c0.5,0.5 1.1,0.8 1.7,1.1l0,0.2c0,0.2 -0.1,0.5 -0.1,0.7c0,1.2 0.4,2.1 1.1,2.2c0.8,0.1 1.6,-1 1.8,-2.5l0,-0.2c0.7,-0.1 1.4,-0.2 2,-0.5c0.7,0.9 1.6,1.5 2.2,1.5c0.2,0 0.4,-0.1 0.5,-0.2c0.6,-0.5 0.4,-1.9 -0.5,-3l0,0c0.4,-0.5 0.8,-1.1 1,-1.8l0.1,0c0.2,0 0.5,0 0.7,0c1.2,0 2.1,-0.4 2.2,-1.1c0.1,-0.7 -1,-1.5 -2.5,-1.8zm-3.4,1c0,0.3 -0.1,0.5 -0.2,0.7c-0.1,0.2 -0.2,0.5 -0.4,0.6c-0.3,0.4 -0.7,0.7 -1.2,0.9c-0.2,0.1 -0.5,0.2 -0.7,0.2c-0.3,0 -0.5,0 -0.8,0c-0.3,0 -0.5,-0.1 -0.7,-0.2c-0.2,-0.1 -0.5,-0.2 -0.6,-0.4c-0.4,-0.3 -0.7,-0.7 -0.9,-1.2c-0.1,-0.2 -0.2,-0.5 -0.2,-0.7c0,-0.2 0,-0.5 0,-0.8c0,-0.3 0.1,-0.5 0.2,-0.7c0.1,-0.2 0.2,-0.5 0.4,-0.6c0.3,-0.4 0.7,-0.7 1.2,-0.9c0.2,-0.1 0.5,-0.2 0.7,-0.2c0.2,0 0.5,0 0.8,0c0.3,0 0.5,0.1 0.7,0.2c0.2,0.1 0.5,0.2 0.6,0.4c0.4,0.3 0.7,0.7 0.9,1.2c0.1,0.2 0.2,0.5 0.2,0.7c0,0.3 0,0.6 0,0.8z"/>
     </g>
    </svg>
   </g>
  </g>
  <g id="svg_103" class="svg-clip svg-visible" transform="matrix(-2.5351,0.1773,0.1695,2.4238,543.7536,93.018) ">
   <rect id="svg_104" class="svg-hitbox" fill="none" height="20" width="20" y="8.56354" x="114.17755"/>
   <g id="svg_15">
    <svg y="8.56354" x="114.17755" id="svg_105" viewBox="29.490473110332758,26.390473110332742,20.443888668097657,20.319053779334517" height="20.31905" width="20.44389">
     <desc>Created with Snap</desc>

     <g id="svg_106">
      <path id="svg_107" fill="url('#linearGradientSkjjlfcerkdh')" d="m43.5,36.1l-0.1,0c0,-0.4 -0.2,-0.7 -0.3,-1.1l0.1,-0.1c0.5,-0.4 0.9,-0.9 0.9,-1.3c0,-0.1 0,-0.2 -0.1,-0.3c-0.3,-0.4 -1.1,-0.2 -1.8,0.3l-0.2,0.1c-0.3,-0.2 -0.6,-0.4 -0.9,-0.5l0,-0.1c0,-0.1 0,-0.3 0,-0.4c0,-0.7 -0.3,-1.3 -0.7,-1.3c-0.5,-0.1 -0.9,0.6 -1.1,1.5l0,0.1c-0.3,0 -0.7,0.1 -1,0.3l-0.1,-0.3c-0.4,-0.5 -0.9,-0.9 -1.3,-0.9c-0.1,0 -0.2,0 -0.3,0.1c-0.4,0.3 -0.2,1.1 0.3,1.8l0.1,0.2c-0.2,0.3 -0.4,0.6 -0.6,0.9l-0.2,0c-0.1,0 -0.3,0 -0.4,0c-0.7,0 -1.3,0.3 -1.3,0.7c-0.1,0.5 0.6,1 1.5,1.1l0.1,0c0,0.4 0.1,0.8 0.2,1.1l0,0c-0.5,0.4 -0.9,0.9 -0.9,1.3c0,0.1 0,0.2 0.1,0.3c0.3,0.4 1.1,0.2 1.8,-0.3l0,0c0.3,0.3 0.6,0.5 1,0.6l0,0.1c0,0.1 0,0.3 0,0.4c0,0.7 0.3,1.3 0.7,1.3c0.5,0.1 0.9,-0.6 1.1,-1.5l0,-0.1c0.4,0 0.8,-0.1 1.2,-0.3c0.4,0.5 0.9,0.9 1.3,0.9c0.1,0 0.2,0 0.3,-0.1c0.4,-0.3 0.2,-1.1 -0.3,-1.8l0,0c0.3,-0.3 0.4,-0.7 0.6,-1.1l0,0c0.1,0 0.3,0 0.4,0c0.7,0 1.3,-0.3 1.3,-0.7c0.2,-0.3 -0.5,-0.8 -1.4,-0.9zm-2,0.6c0,0.2 -0.1,0.3 -0.1,0.4c-0.1,0.1 -0.1,0.3 -0.2,0.4c-0.2,0.2 -0.4,0.4 -0.7,0.5c-0.1,0.1 -0.3,0.1 -0.4,0.1c-0.2,0 -0.3,0 -0.5,0c-0.2,0 -0.3,-0.1 -0.4,-0.1c-0.1,-0.1 -0.3,-0.1 -0.4,-0.2c-0.2,-0.2 -0.4,-0.4 -0.5,-0.7c-0.1,-0.1 -0.1,-0.3 -0.1,-0.4c0,-0.1 0,-0.3 0,-0.5s0.1,-0.3 0.1,-0.4c0.1,-0.1 0.1,-0.3 0.2,-0.4c0.2,-0.2 0.4,-0.4 0.7,-0.5c0.1,-0.1 0.3,-0.1 0.4,-0.1c0.1,0 0.3,0 0.5,0c0.2,0 0.3,0.1 0.4,0.1c0.1,0.1 0.3,0.1 0.4,0.2c0.2,0.2 0.4,0.4 0.5,0.7c0.1,0.1 0.1,0.3 0.1,0.4c0,0.2 0,0.3 0,0.5z"/>
     </g>
    </svg>
   </g>
  </g>
  <g id="svg_108" class="svg-clip svg-visible" transform="matrix(-0.7958,3.1919,3.2685,0.8149,464.7426,227.5459) ">
   <rect id="svg_109" class="svg-hitbox" fill="none" height="15" width="15" y="-80.01278" x="33.27248"/>
   <g id="svg_16">
    <svg y="-80.01278" x="33.27248" id="svg_110" viewBox="48.466001674969654,63.24199999999999,15.367996650060682,15.36" height="15.36" width="15.368">
     <desc>Created with Snap</desc>

     <g id="svg_111">
      <circle id="svg_112" fill="url('#linearGradientSkjjlfcerk9m')" r="2.68" cy="70.922" cx="56.15"/>
     </g>
    </svg>
   </g>
  </g>
  <g id="svg_113">
   <rect id="svg_114" stroke="#ff8800" fill="rgba(255,136,0,0.1)" height="0" width="0" y="456" x="-91"/>
  </g>
  <g id="svg_115" class="selector-part">
   <rect id="svg_116" stroke="#3399ff" fill="rgba(168,202,236,0.5)" height="0" width="0" y="41" x="-288"/>
  </g>
 </g>
</svg>