<?xml version="1.0" encoding="utf-8"?>
<!-- Generated by IcoMoon.io -->
<!DOCTYPE svg PUBLIC "-//W3C//DTD SVG 1.1//EN" "http://www.w3.org/Graphics/SVG/1.1/DTD/svg11.dtd">
<svg version="1.1" xmlns="http://www.w3.org/2000/svg" xmlns:xlink="http://www.w3.org/1999/xlink" width="512" height="512" viewBox="0 0 512 512">
<g>
</g>
	<path fill="#ffffff" d="M140.606 63.089h39.906c26.594 0 53.207 13.312 66.499 39.916h-66.499v13.302h73.144c0 6.646 0 13.302 0 19.968h-73.144v13.291h73.144v13.312h-73.144v13.291h73.144v119.736c0 39.916-33.229 73.185-73.144 73.185h-39.906c-39.926 0-73.186-33.27-73.186-73.185v-119.726h73.186v-13.291h-73.186v-13.312h73.186v-13.291h-73.186c0-6.666 0-13.322 0-19.968h73.186v-13.302h-66.56c13.343-26.614 39.936-39.926 66.56-39.926v0z"/>
	<path fill="#ffffff" d="M133.929 428.974c-26.583 0-139.684-13.312-119.726-192.922 6.686 0 13.302 0 26.645 0 0 59.863-6.666 146.34 73.134 159.652 33.27 6.635 66.54 13.302 113.081-6.656 66.539-26.614 59.873-99.779 53.217-152.986 13.322 0 19.958 0 26.603 0 13.302 86.477 0 172.954-119.726 199.547v39.895h66.509v26.624h-186.245v-26.624c19.968 0 46.561 0 66.509 0v-46.531z" />
	<path fill="#ffffff" d="M446.556 302.572c0-6.656-6.625-6.656-6.625-6.656 6.625-19.958 19.927-39.906 33.25-59.863 33.25-79.821 0-159.652-53.207-212.869 0-6.636 6.615-6.636 6.615-13.302 79.841 66.519 106.445 186.256 19.968 292.69v0z"/>
	<path fill="#ffffff" d="M400.005 262.656v-6.656c0-6.646 6.625-13.312 13.312-19.947 19.968-39.916 19.968-79.821 6.646-113.091-6.646-19.948-19.958-39.895-39.895-59.863 13.281-13.291 26.573 13.312 33.25 19.968 33.239 46.541 39.926 119.726-13.312 179.589v0z"/>
	<path fill="#ffffff" d="M366.736 229.397c0 0-6.635 0-6.635-6.666 33.25-46.551 26.603-93.113-6.646-126.362 0 0 0 0 6.646-6.656 39.906 33.239 46.541 93.112 6.635 139.684v0z"/>
	<path fill="#ffffff" d="M340.142 202.793c-6.635 0-6.635 0-13.291-6.656 26.603-26.614 13.291-46.561 0-66.529 0-6.656 6.646-6.656 6.646-6.656 19.958 19.978 26.603 53.227 6.646 79.841v0z"/>
</svg>
