<?xml version="1.0" encoding="utf-8"?>
<!-- Generated by IcoMoon.io -->
<!DOCTYPE svg PUBLIC "-//W3C//DTD SVG 1.1//EN" "http://www.w3.org/Graphics/SVG/1.1/DTD/svg11.dtd">
<svg version="1.1" xmlns="http://www.w3.org/2000/svg" xmlns:xlink="http://www.w3.org/1999/xlink" width="512" height="512" viewBox="0 0 512 512">
<g>
</g>
	<path d="M27.566 102.421h456.858v343.777h-456.858v-343.777zM88.094 377.784c47.759 0 95.498 0 141.66 0 4.792-60.498-17.511-81.203-46.162-90.716-14.316 0-30.249 0-44.565 0-46.183 14.336-49.357 52.49-50.934 90.716v0zM162.877 177.214c-28.611 0-52.511 20.695-52.511 46.162 0 25.477 23.9 46.172 52.511 46.172 28.672 0 50.954-20.695 50.954-46.172 0-25.477-22.282-46.162-50.954-46.162v0zM290.243 174.018v17.52h144.825v-17.52h-144.825zM290.243 212.255v15.903h144.825v-15.903h-144.825zM290.243 248.852v15.913h144.825v-15.913h-144.825zM290.243 285.44v15.964h144.825v-15.964h-144.825zM290.243 322.079v15.892h144.825v-15.892h-144.825zM290.243 358.697v17.48h144.825v-17.48h-144.825zM92.846 65.802c-9.554 0-17.49 12.728-17.49 27.054 0 14.295 7.936 27.044 17.49 27.044 9.543 0 15.913-12.749 15.913-27.044 0-14.326-6.37-27.054-15.913-27.054v0zM425.543 67.389c-9.534 0-17.52 11.141-17.52 27.044 0 14.346 7.987 25.456 17.52 25.456 9.523 0 15.902-11.111 15.902-25.457-0.010-15.903-6.39-27.044-15.902-27.044z" fill="#ffffff" />
</svg>
